<svg width="30" height="30" viewBox="0 0 30 30" fill="none" xmlns="http://www.w3.org/2000/svg">
<rect x="0.227295" y="0.25" width="29.0909" height="29.0909" rx="14.5455" fill="#F0C1A3"/>
<path fill-rule="evenodd" clip-rule="evenodd" d="M7.09494 14.8122C7.02897 14.9969 7.02897 15.2 7.09494 15.3847C7.7375 17.0037 8.82822 18.3879 10.2288 19.362C11.6294 20.336 13.2768 20.856 14.9621 20.856C16.6475 20.856 18.2949 20.336 19.6954 19.362C21.096 18.3879 22.1868 17.0037 22.8293 15.3847C22.8953 15.2 22.8953 14.9969 22.8293 14.8122C22.1868 13.1932 21.096 11.809 19.6954 10.8349C18.2949 9.86087 16.6475 9.34088 14.9621 9.34088C13.2768 9.34088 11.6294 9.86087 10.2288 10.8349C8.82822 11.809 7.7375 13.1932 7.09494 14.8122ZM15 17.0682C16.1297 17.0682 17.0455 16.1524 17.0455 15.0227C17.0455 13.893 16.1297 12.9773 15 12.9773C13.8703 12.9773 12.9546 13.893 12.9546 15.0227C12.9546 16.1524 13.8703 17.0682 15 17.0682Z" fill="#E15F18"/>
</svg>
