<svg width="30" height="30" viewBox="0 0 30 30" fill="none" xmlns="http://www.w3.org/2000/svg">
<rect x="0.136353" y="0.25" width="29.0909" height="29.0909" rx="14.5455" fill="#E15F18"/>
<path d="M18.9432 16.8978C19.8744 15.9853 20.8182 14.8915 20.8182 13.4603C20.8182 12.5486 20.456 11.6742 19.8113 11.0296C19.1667 10.3849 18.2923 10.0228 17.3807 10.0228C16.676 10.0228 16.1047 10.151 15.5386 10.4896C14.9462 10.844 14.1901 10.844 13.5977 10.4896C13.0316 10.151 12.4603 10.0228 11.7557 10.0228C10.844 10.0228 9.96964 10.3849 9.32499 11.0296C8.68033 11.6742 8.31816 12.5486 8.31816 13.4603C8.31816 14.8978 9.25566 15.9915 10.1932 16.8978L13.6843 20.3889C14.1724 20.877 14.9639 20.877 15.452 20.3889L18.9432 16.8978Z" fill="#A3BAD7"/>
</svg>
