<svg width="30" height="30" viewBox="0 0 30 30" fill="none" xmlns="http://www.w3.org/2000/svg">
<rect width="29.0909" height="29.0909" rx="14.5455" fill="#3C5364"/>
<rect width="4.33551" height="3.57359" rx="0.909091" transform="matrix(-0.0108117 -0.999942 0.99995 -0.00999727 12.7953 13.0074)" fill="#EAEAE0"/>
<path fill-rule="evenodd" clip-rule="evenodd" d="M20.4105 11.9925C20.4105 11.4904 20.0035 11.0834 19.5015 11.0834H9.58943C9.08736 11.0834 8.68034 11.4904 8.68034 11.9925V19.3516C8.68034 19.8536 9.08736 20.2607 9.58944 20.2607H19.5015C20.0035 20.2607 20.4105 19.8536 20.4105 19.3516V17.6384C20.4105 17.1606 20.0232 16.7733 19.5455 16.7733C19.0677 16.7733 18.6804 16.386 18.6804 15.9082V15.0521C18.6804 14.5743 19.0677 14.187 19.5455 14.187C20.0232 14.187 20.4105 13.7997 20.4105 13.3219V11.9925Z" fill="#EAEAE0"/>
</svg>
